<svg xmlns="http://www.w3.org/2000/svg" xmlns:xlink="http://www.w3.org/1999/xlink" width="625.446" height="647.121" viewBox="0 0 625.446 647.121">
  <defs>
    <linearGradient id="linear-gradient" x1="0.693" y1="-0.978" x2="0.296" y2="2.058" gradientUnits="objectBoundingBox">
      <stop offset="0" stop-color="#34b8b5"/>
      <stop offset="1" stop-color="#6cb7f0"/>
    </linearGradient>
    <linearGradient id="linear-gradient-2" x1="1.309" y1="-0.626" x2="-2.117" y2="3.597" xlink:href="#linear-gradient"/>
    <linearGradient id="linear-gradient-5" x1="0.054" y1="-0.655" x2="1.421" y2="2.053" xlink:href="#linear-gradient"/>
    <linearGradient id="linear-gradient-7" x1="1.201" y1="-0.405" x2="-0.442" y2="1.856" xlink:href="#linear-gradient"/>
    <linearGradient id="linear-gradient-19" x1="1.309" y1="-0.626" x2="-2.117" y2="3.597" gradientUnits="objectBoundingBox">
      <stop offset="0" stop-color="#34b8b5" stop-opacity="0.149"/>
      <stop offset="1" stop-color="#6cb7f0"/>
    </linearGradient>
  </defs>
  <g id="Group_425" data-name="Group 425" transform="translate(-1100.881 -327.342)">
    <path id="Path_142" data-name="Path 142" d="M101.857,387.235H282.3v66.193l-13.651-16.644h-166.8Z" transform="translate(999.024 66.193)" opacity="0.15" fill="url(#linear-gradient)"/>
    <path id="Path_146" data-name="Path 146" d="M330.938,410.276l4.127,8.361,9.227,1.341-6.677,6.508,1.576,9.19-8.253-4.339-8.253,4.339,1.576-9.19-6.677-6.508,9.227-1.341Z" transform="translate(876.884 53.148)" fill="#fff"/>
    <path id="Path_147" data-name="Path 147" d="M408.008,410.276l4.127,8.361,9.226,1.341-6.676,6.508,1.576,9.19-8.253-4.339-8.253,4.339,1.576-9.19-6.677-6.508,9.227-1.341Z" transform="translate(833.249 53.148)" fill="#fff"/>
    <path id="Path_144" data-name="Path 144" d="M176.8,410.276l4.126,8.361,9.227,1.341-6.677,6.508,1.576,9.19-8.253-4.339-8.253,4.339,1.576-9.19-6.677-6.508,9.227-1.341Z" transform="translate(964.154 53.148)" fill="#34b8b5"/>
    <path id="Path_145" data-name="Path 145" d="M253.868,410.276l4.126,8.361,9.227,1.341-6.677,6.508,1.576,9.19-8.253-4.339-8.253,4.339,1.576-9.19-6.677-6.508,9.227-1.341Z" transform="translate(920.519 53.148)" fill="#34b8b5"/>
    <g id="Group_374" data-name="Group 374" transform="translate(1357.638 567.631)" opacity="0.32">
      <g id="Group_373" data-name="Group 373" transform="translate(54.886 10.276)">
        <path id="Path_151" data-name="Path 151" d="M911.066,242.292a5.258,5.258,0,0,0-2.69-3.063l-6.918-3.4V209.251a5.331,5.331,0,0,0-5.325-5.319H837.069a5.331,5.331,0,0,0-5.325,5.319v16.482h5.275l.039-13.2c.062.067,8.806,7.931,8.806,7.931l-.763,1.543a2.6,2.6,0,1,0,4.667,2.3l1.788-3.475c.864,2.111,13.9,34.735,13.9,34.735a2.61,2.61,0,0,0,2.418,1.638c.234,0,36.439-10.16,36.439-10.16.139-.039-13.9,28.618-13.9,28.618l-10.461-16.543a2.6,2.6,0,0,0-4.4,2.785l8.561,13.546L843.09,255.287a2.6,2.6,0,1,0-2.295,4.673l46.164,22.692a5.335,5.335,0,0,0,7.129-2.417L910.8,246.353A5.25,5.25,0,0,0,911.066,242.292ZM896.25,212.415v20.853l-14.972-7.363S896.161,212.532,896.25,212.415ZM848.265,215.6l-.006.017-7.212-6.372h51l-15.807,14.186-20.854-10.253A5.334,5.334,0,0,0,848.265,215.6Zm21.161,35.865-12.778-31.86,45.719,22.58Z" transform="translate(-831.744 -203.932)" stroke="#fff" stroke-width="3.5" fill="url(#linear-gradient-2)"/>
      </g>
      <path id="Path_152" data-name="Path 152" d="M745.774,213.261a16.507,16.507,0,1,1,16.508-16.507A16.527,16.527,0,0,1,745.774,213.261Zm0-27.809a11.3,11.3,0,1,0,11.3,11.3A11.314,11.314,0,0,0,745.774,185.452Z" transform="translate(-718.837 -180.246)" stroke="#fff" stroke-width="3.5" fill="url(#linear-gradient-2)"/>
      <path id="Path_153" data-name="Path 153" d="M773.643,262.713l-27.522-.9-25.722.028c-8.377.011-15.184,6.088-15.173,13.546l.061,30.022c.012,6.956,4.284,11.881,10.924,12.839v33.475a9.3,9.3,0,0,0,9.3,9.218h.908a9.193,9.193,0,0,0,6.64-2.83,9.343,9.343,0,0,0,6.751,2.83,8.987,8.987,0,0,0,9.082-9.235V282.838h24.94a8.7,8.7,0,0,0,8.689-8.7v-1.876C782.516,266.941,778.695,262.836,773.643,262.713Zm3.665,11.429a3.488,3.488,0,0,1-3.481,3.487H746.066a2.6,2.6,0,0,0-1.86.785c-.49.5-.4,1.18-.379,1.883V351.71a4.086,4.086,0,0,1-8.172.006V322.757a2.6,2.6,0,1,0-5.208,0l-.017,28.959a4.021,4.021,0,0,1-4.016,4.016h-.908a4.021,4.021,0,0,1-4.016-4.016V287.1a2.664,2.664,0,0,0-2.674-2.6h-.006a2.6,2.6,0,0,0-2.6,2.607v25.845c-3.638-.8-5.71-3.5-5.715-7.553V275.38c0-4.59,4.406-8.327,9.909-8.333l25.633-.034,27.46.9c2.244.056,3.809,1.844,3.809,4.35Z" transform="translate(-705.227 -226.426)" stroke="#fff" stroke-width="3.5" fill="url(#linear-gradient-2)"/>
    </g>
    <g id="Group_376" data-name="Group 376" transform="translate(1110.606 662.905)" opacity="0.32">
      <path id="Path_154" data-name="Path 154" d="M257.66,627H213.582a5.908,5.908,0,0,0-5.712,6.069v15.666h-7.345V624.917a5.91,5.91,0,0,0-5.716-6.074H150.732a5.907,5.907,0,0,0-5.712,6.074V653.9a5.9,5.9,0,0,0,5.712,6.07h16.327v23.82a5.9,5.9,0,0,0,5.712,6.069H196.75c.144.4.317.762.447,1.127a15.308,15.308,0,0,0,2.794,4.863H194.5l-7.354.005c-4.511,0-7.781,2.63-7.781,6.253a9.542,9.542,0,0,0,.174,1.9,5.609,5.609,0,0,0-2.348,4.7,8.479,8.479,0,0,0,1.623,4.774,8.1,8.1,0,0,0-.074,5.384,5.483,5.483,0,0,0,4.029,3.7l.764.005c-.03.149-.055.3-.074.452a5.61,5.61,0,0,0,1.1,4.218,7,7,0,0,0,5.027,2.029s18.9.015,19.766,0c3.642-.049,11.979-4.163,12-4.2H224a2.449,2.449,0,0,0,0-4.9h-2.65a4.771,4.771,0,0,0-2.173.526c-2.5,1.275-8.258,3.652-9.9,3.672-2.124.035-19.712,0-19.712,0-.348,0-1.065.081-1.022-1.087.013-.344.288-.487.7-.69l6.159.024a2.449,2.449,0,0,0,0-4.9H183.653a6.579,6.579,0,0,1-.353-2.223h9.94a2.446,2.446,0,1,0,0-4.893H182.765c-.292-.392-1.044-.627-.68-1.965a3.873,3.873,0,0,1,.789-1.112h13.16a2.386,2.386,0,0,0,2.357-2.492,2.42,2.42,0,0,0-2.531-2.336H184.284c-.015-.169-.025-.367-.025-.6,0-.735,1.32-1.355,2.884-1.355,0,0,16.505-.01,17.056,0a2.527,2.527,0,0,0,2.149-1.211,2.449,2.449,0,0,0,.01-2.467l-4.7-8.129c-1.578-3.816-1.2-5.471-.412-6.213.744-.7,1.216.184,1.325.407,2.819,6.918,9.479,14.1,9.761,14.4a2.454,2.454,0,0,0,.834.581,8.228,8.228,0,0,1,4.893,5.533c.02.064,1.251,1.95,2.233,2.014h3.166a2.375,2.375,0,0,0,2.605-2.178,2.5,2.5,0,0,0-2.282-2.655h-1.528a13.115,13.115,0,0,0-6.665-7c-.576-.645-1.846-2.1-3.28-3.98h4.546a5.909,5.909,0,0,0,5.717-6.069V668.121h35.1a5.91,5.91,0,0,0,5.716-6.07V633.066A5.909,5.909,0,0,0,257.66,627Zm-90.6,27.8v.273H150.732c-.387,0-.813-.486-.813-1.176V624.917c0-.695.426-1.176.813-1.176h44.077c.387,0,.819.481.819,1.176v23.815H172.77A5.905,5.905,0,0,0,167.059,654.8Zm50.608,28.986c0,.69-.432,1.171-.819,1.171h-7.886a28.1,28.1,0,0,1-1.861-3.672c-.794-1.945-3.478-4.406-6.714-3.548-3.054.725-4.711,4.04-4.665,7.22H172.77c-.382,0-.814-.481-.814-1.171V654.8c0-.69.432-1.171.814-1.171h44.077c.387,0,.819.481.819,1.171Zm40.812-21.736c0,.69-.432,1.172-.819,1.172h-35.1V654.8a5.91,5.91,0,0,0-5.717-6.069h-4.079V633.066c0-.69.432-1.171.814-1.171H257.66c.387,0,.819.481.819,1.171Z" transform="translate(-145.02 -618.843)" stroke="#fff" stroke-width="3.5" fill="url(#linear-gradient-5)"/>
      <g id="Group_375" data-name="Group 375" transform="translate(82.774 81.031)">
        <path id="Path_155" data-name="Path 155" d="M348.038,838.5h-6.321a5.826,5.826,0,0,1-5.9-5.74V808.075a2.449,2.449,0,1,1,4.9,0v24.682a.932.932,0,0,0,1,.842h6.321a2.449,2.449,0,0,1,0,4.9Z" transform="translate(-335.821 -805.626)" stroke="#fff" stroke-width="3.5" fill="url(#linear-gradient-5)"/>
      </g>
    </g>
    <g id="Group_378" data-name="Group 378" transform="translate(1403.759 856.586)" opacity="0.32">
      <path id="Path_156" data-name="Path 156" d="M1265.429,1000.371l-5.518-13.9a15.882,15.882,0,0,0,5.065-11.681V938.127a15.581,15.581,0,0,0-15.37-15.75h-54.394a15.581,15.581,0,0,0-15.37,15.75V960.9h-46.715a14.482,14.482,0,0,0-14.313,14.618v33.447a14.69,14.69,0,0,0,4.587,10.723l-4.98,12.512a4.234,4.234,0,0,0,.419,3.948,4.155,4.155,0,0,0,5.358,1.384l27.2-13.941h31.472a14.489,14.489,0,0,0,14.313-14.625V990.532h32.5l29.8,15.324a4.279,4.279,0,0,0,5.5-1.423A4.372,4.372,0,0,0,1265.429,1000.371Zm-74.145,8.589a8.585,8.585,0,0,1-8.41,8.722h-32.183a2.978,2.978,0,0,0-1.349.325l-23.773,12.186,4.122-10.35a2.953,2.953,0,0,0-1.1-3.544,8.785,8.785,0,0,1-3.876-7.339V975.514a8.585,8.585,0,0,1,8.417-8.721h46.715v8a15.7,15.7,0,0,0,11.442,15.218Zm67.789-34.171a9.928,9.928,0,0,1-4.354,8.283,2.947,2.947,0,0,0-1.1,3.537l4.78,12.053-26.645-13.7a2.973,2.973,0,0,0-1.35-.325h-35.188a9.677,9.677,0,0,1-9.467-9.846V938.127a9.673,9.673,0,0,1,9.467-9.847h54.394a9.672,9.672,0,0,1,9.466,9.847Z" transform="translate(-1118.116 -922.377)" stroke="#fff" stroke-width="4.5" fill="url(#linear-gradient-7)"/>
      <g id="Group_377" data-name="Group 377" transform="translate(23.683 55.18)">
        <path id="Path_157" data-name="Path 157" d="M1205.287,1077.976a2.95,2.95,0,0,1-4.169,4.174l-11.687-11.687-11.681,11.687a2.952,2.952,0,0,1-4.175-4.174l11.688-11.681-11.688-11.687a2.952,2.952,0,0,1,4.175-4.176l11.681,11.687,11.687-11.687a2.95,2.95,0,1,1,4.169,4.176l-11.681,11.687Z" transform="translate(-1172.708 -1049.571)" stroke="#fff" stroke-width="4.5" fill="url(#linear-gradient-7)"/>
      </g>
      <path id="Path_158" data-name="Path 158" d="M1329.493,991.97a3.077,3.077,0,0,1-2.448-1.426l-13.253-19.734a2.988,2.988,0,0,1,.8-4.127,2.949,2.949,0,0,1,4.1.784l10.745,15.942,17.768-27.7a2.95,2.95,0,1,1,4.968,3.184l-20.191,31.6a3.048,3.048,0,0,1-2.45,1.479Z" transform="translate(-1228.618 -940.478)" stroke="#fff" stroke-width="4.5" fill="url(#linear-gradient-7)"/>
    </g>
    <g id="Group_384" data-name="Group 384" transform="translate(1534.904 328.592)" opacity="0.32">
      <g id="Group_379" data-name="Group 379" transform="translate(4.732 12.201)">
        <path id="Path_159" data-name="Path 159" d="M1137.019,375.364a17.543,17.543,0,0,0-.013-2.238,43.8,43.8,0,0,0-16.906,9.518c4.436.957,9.329,2.939,10.678,7.806.135.472.458,2.345.58,2.7.714,2.063,3.626,3.1,6.2,4.017,6.215,2.2,7.712,5.447,7.887,7.793.337,4.829-4.107,7.707-8.6,9.505l-1.483-3.762c2.415-.96,6.249-2.776,6.04-5.46-.135-2.049-2.9-3.451-5.191-4.274-3.087-1.092-7.32-2.588-8.668-6.5-.229-.66-.522-2.6-.661-2.925-1.5-3.505-9.949-5.7-9.949-5.7a44,44,0,0,0-11.189,27.987l-4.045-.121a47.869,47.869,0,0,1,45.069-46.377l.243,4.031a44.391,44.391,0,0,0-6.013.769,21.015,21.015,0,0,1,.068,3.4c-.205,4.346,1.733,6.929,5.163,8.17l-1.375,3.8C1140.017,385.747,1136.755,381.761,1137.019,375.364Z" transform="translate(-1101.697 -367.329)" stroke="#fff" stroke-width="2.5" fill="url(#linear-gradient-2)"/>
        <path id="Path_160" data-name="Path 160" d="M1209.928,469.711a10.421,10.421,0,0,1-3.849-1.005l-.342-.141,1.53-3.744a11.051,11.051,0,0,0,2.751.838,6.9,6.9,0,0,0,.4-1.145c1.946-6.385,8.224-11.5,17.893-10.036,2.917.44,4.769.63,5.9-.475.142-.14,1.5-1.672,5.235-12.256l3.813,1.347c-4.168,11.8-5.664,13.259-6.228,13.808-2.656,2.585-6.358,2.026-9.329,1.576-7.292-1.1-11.973,2.463-13.42,7.213C1213.582,468.094,1212.454,469.711,1209.928,469.711Z" transform="translate(-1160.602 -409.462)" stroke="#fff" stroke-width="2.5" fill="url(#linear-gradient-2)"/>
      </g>
      <path id="Path_161" data-name="Path 161" d="M1147.762,510.1l-7.738-11.177a18.348,18.348,0,0,0,.647-4.84c0-11.715-11.19-21.246-24.941-21.246s-24.941,9.531-24.941,21.246,11.189,21.26,24.941,21.26a27.867,27.867,0,0,0,15.153-4.381l14.911,2.292A2.024,2.024,0,0,0,1147.762,510.1Zm-17.041-3.262a2.109,2.109,0,0,0-1.469.35,23.736,23.736,0,0,1-13.522,4.112c-11.527,0-20.9-7.725-20.9-17.216s9.37-17.2,20.9-17.2,20.9,7.712,20.9,17.2a14.511,14.511,0,0,1-.742,4.543,2.018,2.018,0,0,0,.256,1.793l5.622,8.116Z" transform="translate(-1090.789 -414.863)" stroke="#fff" stroke-width="2.5" fill="url(#linear-gradient-2)"/>
      <path id="Path_162" data-name="Path 162" d="M1231.951,339.2c-13.751,0-24.941,9.532-24.941,21.247a18.355,18.355,0,0,0,.647,4.84l-7.738,11.176a2.026,2.026,0,0,0,1.968,3.155l14.911-2.292a27.864,27.864,0,0,0,15.153,4.382c13.751,0,24.941-9.546,24.941-21.26S1245.7,339.2,1231.951,339.2Zm0,38.463a23.736,23.736,0,0,1-13.522-4.112,2.08,2.08,0,0,0-1.469-.351l-11.041,1.7,5.622-8.116A2.019,2.019,0,0,0,1211.8,365a14.5,14.5,0,0,1-.741-4.543c0-9.492,9.369-17.2,20.9-17.2s20.9,7.712,20.9,17.2S1243.478,377.668,1231.951,377.668Z" transform="translate(-1152.368 -339.205)" stroke="#fff" stroke-width="2.5" fill="url(#linear-gradient-2)"/>
      <path id="Path_163" data-name="Path 163" d="M1230.962,438.555l-3.789,1.429a43.624,43.624,0,0,1,2.373,21.84,5.952,5.952,0,0,0-3.842.121,31.825,31.825,0,0,0-5.946,3.762,8.693,8.693,0,0,1-3.141,2.022c-1.8.376-5.719-.61-6.687-1.025-3.261-1.4-8.709-3.761-13.32-.215a7.032,7.032,0,0,0-2.427,7.293,32.472,32.472,0,0,0,4.328,8.992c.269.431.58.93.809,1.321l-.027.027a10.346,10.346,0,0,0-.755,1.24,8.034,8.034,0,0,0,.633,7.671,15.4,15.4,0,0,0,2.818,3.263c-.135.053-16.724,7.731-33.92-.957l-1.672,3.68a47.6,47.6,0,0,0,19.764,4.3,48.1,48.1,0,0,0,16.852-3.074,47.863,47.863,0,0,0,27.948-61.692Zm-4.88,35a43.446,43.446,0,0,1-19.993,20.923,15.412,15.412,0,0,1-3.465-3.559c-.782-1.281-.162-4.261.014-4.516a11.986,11.986,0,0,0,.7-1.106c.688-1.321,0-2.44-1.4-4.664-1.24-2-3.127-4.988-3.815-7.806a3.011,3.011,0,0,1,.944-3.128c2.534-1.942,5.824-.768,9.275.715,2.129.931,6.6,1.789,9.1,1.28a10.419,10.419,0,0,0,4.435-2.494,56.5,56.5,0,0,1,5.5-3.573,3.642,3.642,0,0,1,1.389.162A44.9,44.9,0,0,1,1226.082,473.554Z" transform="translate(-1133.597 -395.455)" stroke="#fff" stroke-width="2.5" fill="url(#linear-gradient-2)"/>
      <g id="Group_381" data-name="Group 381" transform="translate(12.434 64.642)">
        <path id="Path_164" data-name="Path 164" d="M1143.28,539h-.039a2.022,2.022,0,0,1-1.945-1.624c-.552-.573-2.685-1.773-6.156-2.919a7.306,7.306,0,0,0-5.094-.171c-3.687.99-5.98,2.074-6.606,2.617a2.024,2.024,0,0,1-1.925,1.537h-.041a2.024,2.024,0,0,1-2.021-1.983c-.019-1.047-.067-3.5,9.545-6.077a11.227,11.227,0,0,1,7.411.237c8.956,2.957,8.909,5.458,8.892,6.4A2.022,2.022,0,0,1,1143.28,539Z" transform="translate(-1119.45 -511.79)" stroke="#fff" stroke-width="2.5" fill="url(#linear-gradient-2)"/>
        <g id="Group_380" data-name="Group 380" transform="translate(4.837)">
          <path id="Path_165" data-name="Path 165" d="M1138.69,488.211a8.089,8.089,0,1,0,8.089,8.089A8.086,8.086,0,0,0,1138.69,488.211Zm0,12.47a4.382,4.382,0,1,1,4.381-4.382A4.373,4.373,0,0,1,1138.69,500.681Z" transform="translate(-1130.601 -488.211)" stroke="#fff" stroke-width="2.5" fill="url(#linear-gradient-2)"/>
        </g>
      </g>
      <g id="Group_383" data-name="Group 383" transform="translate(66.586 6.447)">
        <path id="Path_166" data-name="Path 166" d="M1268.1,404.85h-.038a2.023,2.023,0,0,1-1.946-1.624c-.551-.573-2.684-1.772-6.155-2.918a7.312,7.312,0,0,0-5.1-.171c-3.686.99-5.979,2.074-6.606,2.616a2.023,2.023,0,0,1-1.925,1.537h-.041a2.022,2.022,0,0,1-2.021-1.983c-.019-1.046-.067-3.5,9.545-6.077a11.23,11.23,0,0,1,7.411.237c8.956,2.957,8.909,5.458,8.892,6.4A2.022,2.022,0,0,1,1268.1,404.85Z" transform="translate(-1244.275 -377.645)" stroke="#fff" stroke-width="2.5" fill="url(#linear-gradient-2)"/>
        <g id="Group_382" data-name="Group 382" transform="translate(4.836)">
          <path id="Path_167" data-name="Path 167" d="M1263.512,354.065a8.089,8.089,0,1,0,8.089,8.089A8.087,8.087,0,0,0,1263.512,354.065Zm0,12.471a4.382,4.382,0,1,1,4.381-4.382A4.373,4.373,0,0,1,1263.512,366.536Z" transform="translate(-1255.423 -354.065)" stroke="#fff" stroke-width="2.5" fill="url(#linear-gradient-2)"/>
        </g>
      </g>
    </g>
    <path id="Path_143" data-name="Path 143" d="M1085.837,747.793H969.066v66.193l13.652-16.644h103.119Z" transform="translate(633.031 -93.946)" fill="#34b8b5" opacity="0.15"/>
    <path id="Path_148" data-name="Path 148" d="M1012.575,772.354l4.127,8.361,9.227,1.341-6.677,6.508,1.576,9.19-8.253-4.339-8.252,4.339,1.576-9.19-6.677-6.508,9.227-1.341Z" transform="translate(615.958 -107.852)" fill="#34b8b5"/>
    <path id="Path_149" data-name="Path 149" d="M1089.646,772.354l4.126,8.361,9.227,1.341-6.677,6.508,1.576,9.19-8.253-4.339-8.253,4.339,1.576-9.19-6.676-6.508,9.226-1.341Z" transform="translate(572.322 -107.852)" fill="#fff"/>
    <path id="Path_150" data-name="Path 150" d="M1166.715,772.354l4.126,8.361,9.226,1.341-6.676,6.508,1.576,9.19-8.253-4.339-8.253,4.339,1.576-9.19-6.676-6.508,9.227-1.341Z" transform="translate(528.687 -107.852)" fill="#fff"/>
    <g id="Group_385" data-name="Group 385" transform="translate(1551.826 567.354)">
      <path id="Path_168" data-name="Path 168" d="M1027.687,625.881H955.454v-49.7H936.463V550.041H853.187v-1.62h84.9v26.143h18.991v49.7h70.613Z" transform="translate(-853.187 -548.421)" fill="url(#linear-gradient-19)"/>
    </g>
  </g>
</svg>
