<svg xmlns="http://www.w3.org/2000/svg" width="27.931" height="27.933" viewBox="0 0 27.931 27.933">
  <g id="Group_427" data-name="Group 427" transform="translate(-304 -843)">
    <ellipse id="Ellipse_94" data-name="Ellipse 94" cx="13.965" cy="13.967" rx="13.965" ry="13.967" transform="translate(304 843)" fill="#34b8b5"/>
    <path id="Icon_awesome-thumbs-up" data-name="Icon awesome-thumbs-up" d="M3.25,7H.75A.75.75,0,0,0,0,7.75v7.5A.75.75,0,0,0,.75,16h2.5A.75.75,0,0,0,4,15.25V7.75A.75.75,0,0,0,3.25,7ZM2,14.75A.75.75,0,1,1,2.75,14,.75.75,0,0,1,2,14.75Zm10-12.2c0,1.326-.812,2.069-1.04,2.955h3.179A1.867,1.867,0,0,1,16,7.316a2.263,2.263,0,0,1-.607,1.537l0,0A2.61,2.61,0,0,1,15.1,11.34a2.471,2.471,0,0,1-.512,2.336,1.659,1.659,0,0,1-.192,1.395c-.638.916-2.219.929-3.555.929H10.75a8.971,8.971,0,0,1-3.736-.991A4.918,4.918,0,0,0,5.368,14.5.375.375,0,0,1,5,14.128V7.448a.375.375,0,0,1,.111-.266C6.349,5.958,6.881,4.663,7.9,3.647A3.785,3.785,0,0,0,8.69,1.806C8.829,1.228,9.119,0,9.75,0,10.5,0,12,.25,12,2.545Z" transform="translate(309.5 848.5)" fill="none" stroke="#fff" stroke-width="0.8"/>
  </g>
</svg>
