<svg xmlns="http://www.w3.org/2000/svg" width="28.93" height="28.93" viewBox="0 0 28.93 28.93">
  <path id="Icon_material-public" data-name="Icon material-public" d="M16.965,3A13.965,13.965,0,1,0,30.93,16.965,13.97,13.97,0,0,0,16.965,3Zm-1.4,25.039A11.156,11.156,0,0,1,5.793,16.965a11.337,11.337,0,0,1,.293-2.5l6.689,6.689v1.4a2.8,2.8,0,0,0,2.793,2.793ZM25.2,24.492a2.771,2.771,0,0,0-2.653-1.941h-1.4V18.361a1.4,1.4,0,0,0-1.4-1.4H11.379V14.172h2.793a1.4,1.4,0,0,0,1.4-1.4V9.983h2.793A2.8,2.8,0,0,0,21.155,7.19V6.617A11.147,11.147,0,0,1,25.2,24.492Z" transform="translate(-2.5 -2.5)" fill="#34b8b5" stroke="#fff" stroke-width="1"/>
</svg>
