<svg id="search" xmlns="http://www.w3.org/2000/svg" width="20.431" height="19.502" viewBox="0 0 20.431 19.502">
  <g id="Zoom_2_">
    <g id="Group_275" data-name="Group 275" transform="translate(0 0)">
      <path id="Path_102" data-name="Path 102" d="M20.136,19.6l-4.627-4.444a8.07,8.07,0,0,0,1.816-5.09A8.507,8.507,0,0,0,8.662,1.742,8.506,8.506,0,0,0,0,10.064a8.507,8.507,0,0,0,8.662,8.322,8.841,8.841,0,0,0,5.443-1.853l4.611,4.429a1.033,1.033,0,0,0,1.42,0A.937.937,0,0,0,20.136,19.6ZM2.009,10.064A6.534,6.534,0,0,1,8.662,3.672a6.534,6.534,0,0,1,6.655,6.391,6.536,6.536,0,0,1-6.655,6.393A6.536,6.536,0,0,1,2.009,10.064Z" transform="translate(0 -1.742)" fill="#707070"/>
    </g>
  </g>
</svg>
