<svg xmlns="http://www.w3.org/2000/svg" width="35" height="35" viewBox="0 0 35 35">
  <g id="Group_341" data-name="Group 341" transform="translate(-1373.042 -253.042)">
    <circle id="Ellipse_91" data-name="Ellipse 91" cx="17.5" cy="17.5" r="17.5" transform="translate(1373.042 253.042)" fill="#d5d5d5"/>
    <path id="Icon_awesome-share" data-name="Icon awesome-share" d="M19.116,8.24l-6.68-5.768a.911.911,0,0,0-1.506.689V6.2C4.834,6.269,0,7.491,0,13.268a7.758,7.758,0,0,0,3.163,5.85.676.676,0,0,0,1.066-.707c-1.721-5.5.816-6.965,6.7-7.049V14.7a.911.911,0,0,0,1.506.689l6.68-5.769A.911.911,0,0,0,19.116,8.24Z" transform="translate(1381.097 259.926)" fill="none" stroke="#000" stroke-width="2"/>
  </g>
</svg>
