<svg xmlns="http://www.w3.org/2000/svg" width="27.931" height="27.933" viewBox="0 0 27.931 27.933">
  <g id="Group_426" data-name="Group 426" transform="translate(-167 -843)">
    <ellipse id="Ellipse_9" data-name="Ellipse 9" cx="13.965" cy="13.967" rx="13.965" ry="13.967" transform="translate(167 843)" fill="#34b8b5"/>
    <g id="Icon_feather-eye" data-name="Icon feather-eye" transform="translate(171.46 847.248)">
      <path id="Path_169" data-name="Path 169" d="M1.5,9.876A10.385,10.385,0,0,1,9.34,6a10.385,10.385,0,0,1,7.84,3.876,10.385,10.385,0,0,1-7.84,3.876A10.385,10.385,0,0,1,1.5,9.876Z" fill="none" stroke="#fff" stroke-linecap="round" stroke-linejoin="round" stroke-width="1"/>
      <path id="Path_170" data-name="Path 170" d="M17.776,15.638A2.138,2.138,0,1,1,15.638,13.5,2.138,2.138,0,0,1,17.776,15.638Z" transform="translate(-6.299 -5.762)" fill="none" stroke="#fff" stroke-linecap="round" stroke-linejoin="round" stroke-width="1"/>
    </g>
  </g>
</svg>
