<svg xmlns="http://www.w3.org/2000/svg" width="40.925" height="32.132" viewBox="0 0 40.925 32.132">
  <g id="Group_342" data-name="Group 342" transform="translate(-1557.839 -137)">
    <g id="Icon_awesome-home" data-name="Icon awesome-home" transform="translate(1559.841 136.769)" fill="none">
      <path d="M17.972,9.544,6.154,19.074V29.359a1.015,1.015,0,0,0,1.026,1l7.183-.018a1.015,1.015,0,0,0,1.02-1V23.334a1.015,1.015,0,0,1,1.026-1h4.1a1.015,1.015,0,0,1,1.026,1v6a.993.993,0,0,0,.3.712,1.037,1.037,0,0,0,.726.3l7.181.019a1.015,1.015,0,0,0,1.026-1V19.067L18.953,9.544A.794.794,0,0,0,17.972,9.544ZM36.64,16.021,31.281,11.7V3a.761.761,0,0,0-.769-.753h-3.59A.761.761,0,0,0,26.153,3V7.561L20.414,2.938a3.354,3.354,0,0,0-1.624-.669,2.964,2.964,0,0,0-2.286.669L.278,16.021a.742.742,0,0,0-.1,1.061L1.81,19.027a.781.781,0,0,0,1.084.1L17.972,6.971a.794.794,0,0,1,.981,0L34.031,19.13a.781.781,0,0,0,1.083-.1l1.635-1.945a.742.742,0,0,0-.109-1.062Z" stroke="none"/>
      <path d="M 18.4083423614502 2.230958938598633 C 17.83107948303223 2.230958938598633 17.09867668151855 2.459209442138672 16.50403785705566 2.938274383544922 L 0.2780990600585938 16.02120590209961 C -0.04949188232421875 16.28629493713379 -0.0954132080078125 16.76123428344727 0.175537109375 17.08180618286133 L 1.81011962890625 19.02726364135742 C 1.939888000488281 19.18173599243164 2.127079010009766 19.27933502197266 2.330429077148438 19.29852485656738 C 2.355064392089844 19.30084991455078 2.379711151123047 19.302001953125 2.404251098632813 19.302001953125 C 2.582260131835938 19.302001953125 2.755641937255859 19.24148559570313 2.894069671630859 19.12955474853516 L 17.97194862365723 6.971035003662109 C 18.11505889892578 6.858104705810547 18.28869247436523 6.801639556884766 18.46232795715332 6.801639556884766 C 18.63596153259277 6.801639556884766 18.80959320068359 6.858104705810547 18.95269775390625 6.971035003662109 L 34.03121948242188 19.12955474853516 C 34.17469024658203 19.24578857421875 34.34847640991211 19.30246925354004 34.52119827270508 19.30246925354004 C 34.7426643371582 19.30246925354004 34.96240615844727 19.20933532714844 35.11452865600586 19.02914428710938 L 36.74910736083984 17.08368492126465 C 36.87908935546875 16.92885589599609 36.94067001342773 16.72968482971191 36.92021942138672 16.53026580810547 C 36.8997688293457 16.33085441589355 36.79896926879883 16.14764404296875 36.6401481628418 16.02120590209961 L 36.64013671875 16.02120590209961 L 31.28127861022949 11.69663429260254 L 31.28127861022949 3.004175186157227 C 31.28127861022949 2.588254928588867 30.93688774108887 2.251094818115234 30.51205825805664 2.251094818115234 L 26.92239761352539 2.251094818115234 C 26.49756813049316 2.251094818115234 26.15317916870117 2.588254928588867 26.15317916870117 3.004175186157227 L 26.15317916870117 7.560955047607422 L 20.41420745849609 2.938274383544922 C 20.0143985748291 2.616174697875977 19.55229759216309 2.407455444335938 18.78983879089355 2.269365310668945 C 18.67407608032227 2.243862152099609 18.54558181762695 2.230958938598633 18.4083423614502 2.230958938598633 M 18.46232795715332 9.374670028686523 C 18.28869247436523 9.374670028686523 18.11505889892578 9.431135177612305 17.97194862365723 9.544065475463867 L 6.153617858886719 19.07370376586914 L 6.153617858886719 29.35892486572266 C 6.153617858886719 29.91348457336426 6.612798690795898 30.36303520202637 7.179239273071289 30.36303520202637 L 14.36240768432617 30.34483528137207 C 14.92684745788574 30.34207534790039 15.38290786743164 29.89332580566406 15.38290786743164 29.34073448181152 L 15.38290786743164 23.33426475524902 C 15.38290786743164 22.77971458435059 15.84208869934082 22.33015441894531 16.40852928161621 22.33015441894531 L 20.5109977722168 22.33015441894531 C 21.07742881774902 22.33015441894531 21.53661727905273 22.77971458435059 21.53661727905273 23.33426475524902 L 21.53661727905273 29.33633422851563 C 21.53576850891113 29.60318565368652 21.6434383392334 29.85938453674316 21.83587837219238 30.04837417602539 C 22.0283088684082 30.23736572265625 22.28966903686523 30.34358596801758 22.5622386932373 30.34358596801758 L 29.74284744262695 30.36303520202637 C 30.30927848815918 30.36303520202637 30.76846885681152 29.91348457336426 30.76846885681152 29.35892486572266 L 30.76846885681152 19.06679534912109 L 18.95269775390625 9.544065475463867 C 18.80959320068359 9.431135177612305 18.63596153259277 9.374670028686523 18.46232795715332 9.374670028686523 M 18.40833854675293 0.2309532165527344 C 18.6746826171875 0.2309532165527344 18.93318748474121 0.2565574645996094 19.17747688293457 0.3070945739746094 C 20.21687316894531 0.4990997314453125 20.9863452911377 0.8308963775634766 21.66893768310547 1.380825042724609 L 24.15317916870117 3.381851196289063 L 24.15317916870117 3.004175186157227 C 24.15317916870117 1.486124038696289 25.39544868469238 0.2510948181152344 26.92239761352539 0.2510948181152344 L 30.51205825805664 0.2510948181152344 C 32.03900909423828 0.2510948181152344 33.28127670288086 1.486124038696289 33.28127670288086 3.004175186157227 L 33.28127670288086 10.7406120300293 L 37.89266204833984 14.46197319030762 C 38.46470642089844 14.92039489746094 38.83523559570313 15.59934997558594 38.9097900390625 16.32623481750488 C 38.98494720458984 17.05922508239746 38.75572967529297 17.80400466918945 38.28089904785156 18.36962509155273 L 36.64579010009766 20.31571578979492 C 36.11528015136719 20.94411468505859 35.34199905395508 21.30246543884277 34.52119827270508 21.30246543884277 C 33.8859977722168 21.30246543884277 33.26487731933594 21.08267593383789 32.77224731445313 20.68358612060547 L 32.76846694946289 20.68053817749023 L 32.76846694946289 29.35892486572266 C 32.76846694946289 31.01539421081543 31.41117858886719 32.36303329467773 29.74284744262695 32.36303329467773 L 29.74013900756836 32.36303329467773 L 29.73742866516113 32.3630256652832 L 22.55982971191406 32.34358215332031 C 21.75872421264648 32.34298324584961 21.00404167175293 32.03466796875 20.43447875976563 31.47528457641602 C 19.86236190795898 30.91342163085938 19.53523826599121 30.13317489624023 19.53661918640137 29.33414840698242 L 19.53661918640137 24.33015441894531 L 17.38290786743164 24.33015441894531 L 17.38290786743164 29.34073448181152 C 17.38290786743164 30.98907470703125 16.03230857849121 32.33669662475586 14.37218856811523 32.34481430053711 L 7.184309005737305 32.3630256652832 L 7.181768417358398 32.36303329467773 L 7.179239273071289 32.36303329467773 C 5.510908126831055 32.36303329467773 4.153617858886719 31.01539421081543 4.153617858886719 29.35892486572266 L 4.153617858886719 20.68312072753906 L 4.149509429931641 20.68643569946289 C 3.659297943115234 21.08280563354492 3.03875732421875 21.30200576782227 2.404247283935547 21.30200576782227 C 2.317447662353516 21.30200576782227 2.229537963867188 21.29787445068359 2.142948150634766 21.28971481323242 C 1.411418914794922 21.22068405151367 0.7495269775390625 20.87408447265625 0.278778076171875 20.31373596191406 L -1.355720520019531 18.36837387084961 C -1.833873748779297 17.80027389526367 -2.058708190917969 17.08148384094238 -1.988872528076172 16.34371566772461 C -1.918750762939453 15.60287475585938 -1.560462951660156 14.93618583679199 -0.9800033569335938 14.46647453308105 L 15.24867820739746 1.38133430480957 C 16.15634918212891 0.6500759124755859 17.30777931213379 0.2309532165527344 18.40833854675293 0.2309532165527344 Z" stroke="none" fill="#0347a1"/>
    </g>
  </g>
</svg>
