<svg xmlns="http://www.w3.org/2000/svg" width="110" height="38.762" viewBox="0 0 110 38.762">
  <g id="Group_343" data-name="Group 343" transform="translate(11589 23)">
    <g id="Group_315" data-name="Group 315" transform="translate(-26840 -10432)">
      <circle id="Ellipse_64" data-name="Ellipse 64" cx="19.381" cy="19.381" r="19.381" transform="translate(15251 10409)" fill="#afd2f2"/>
      <text id="t" transform="translate(15264.954 10438.551)" fill="#0347a1" font-size="30" font-family="Raleway-BoldItalic, Raleway" font-weight="700" font-style="italic"><tspan x="0" y="0">t</tspan></text>
    </g>
    <path id="Path_135" data-name="Path 135" d="M3.7.2A3.04,3.04,0,0,1,1.9-.312,1.866,1.866,0,0,1,1.175-1.95a3.389,3.389,0,0,1,.1-.825l1.75-8.175H1.35l.475-2.125H3.45l.925-4.3h2.75l-.925,4.3H8.9L8.45-10.95H5.775l-1.55,7.3a2.106,2.106,0,0,0-.05.375.847.847,0,0,0,.3.725,1.174,1.174,0,0,0,.725.225,3.064,3.064,0,0,0,1.1-.2q.525-.2.8-.325L7.2-.675a6.083,6.083,0,0,1-1.525.613A7.381,7.381,0,0,1,3.7.2Zm7.975-13.275h2.55l-.65,2.925a8.611,8.611,0,0,1,2.15-2.175A4.182,4.182,0,0,1,18.1-13.15q.25,0,.388.013a2.487,2.487,0,0,1,.262.037l-.525,2.4a6.364,6.364,0,0,0-2.8.738A5.456,5.456,0,0,0,13.325-8l-1.7,8H8.875ZM22.55.25a4.382,4.382,0,0,1-1.962-.425,4.4,4.4,0,0,1-1.462-1.15,5.036,5.036,0,0,1-.913-1.713A6.963,6.963,0,0,1,17.9-5.15a8.235,8.235,0,0,1,.587-3.075,8.747,8.747,0,0,1,1.587-2.6,7.976,7.976,0,0,1,2.3-1.8A5.836,5.836,0,0,1,25.1-13.3a3.725,3.725,0,0,1,2.388.762A4.109,4.109,0,0,1,28.85-10.6l.525-2.45H32.15l-2.1,9.8q-.025.125-.037.213A1.154,1.154,0,0,0,30-2.875q0,.5.575.525L30.075,0q-.35.05-.638.088a3.867,3.867,0,0,1-.487.038q-1.625,0-1.625-1.3a6.193,6.193,0,0,1,.175-1.2,6.435,6.435,0,0,1-2.3,1.95A5.9,5.9,0,0,1,22.55.25Zm1.2-2.35a3.176,3.176,0,0,0,1.063-.2,5.22,5.22,0,0,0,1.1-.55,5.465,5.465,0,0,0,.988-.825A4.255,4.255,0,0,0,27.625-4.7l.7-3.425a3.324,3.324,0,0,0-.338-1.113,3.4,3.4,0,0,0-.662-.9,3.036,3.036,0,0,0-.875-.6,2.422,2.422,0,0,0-1-.213,3.566,3.566,0,0,0-1.788.475A5.459,5.459,0,0,0,22.188-9.25a5.964,5.964,0,0,0-1.013,1.712A5.3,5.3,0,0,0,20.8-5.6,4.614,4.614,0,0,0,21-4.213a3.166,3.166,0,0,0,.587,1.1,2.9,2.9,0,0,0,.938.737A2.7,2.7,0,0,0,23.75-2.1ZM35.6-13.075h2.75L35.55,0H32.8Zm1.075-5.175h2.75L38.8-15.225H36.05Zm5,18.45a2.553,2.553,0,0,1-1.763-.55A2.007,2.007,0,0,1,39.3-1.925a3.531,3.531,0,0,1,.025-.412,4.374,4.374,0,0,1,.075-.438L42.675-18.25H45.4L42.35-3.775a1.916,1.916,0,0,0-.075.5,1.022,1.022,0,0,0,.287.775,1.092,1.092,0,0,0,.788.275,2.577,2.577,0,0,0,.65-.1q.375-.1.725-.225l-.1,2.15A7.514,7.514,0,0,1,43.15.038,7.72,7.72,0,0,1,41.675.2Zm7.25-13.275h2.75L48.875,0h-2.75ZM50-18.25h2.75l-.625,3.025h-2.75ZM55.8.2A3.04,3.04,0,0,1,54-.312a1.866,1.866,0,0,1-.725-1.638,3.389,3.389,0,0,1,.1-.825l1.75-8.175H53.45l.475-2.125H55.55l.925-4.3h2.75l-.925,4.3H61l-.45,2.125H57.875l-1.55,7.3a2.106,2.106,0,0,0-.05.375.847.847,0,0,0,.3.725,1.174,1.174,0,0,0,.725.225,3.064,3.064,0,0,0,1.1-.2q.525-.2.8-.325l.1,2.175a6.083,6.083,0,0,1-1.525.613A7.381,7.381,0,0,1,55.8.2Z" transform="translate(-11540 6)" fill="#0347a1"/>
  </g>
</svg>
