<svg xmlns="http://www.w3.org/2000/svg" width="63.931" height="63.934" viewBox="0 0 63.931 63.934">
  <g id="Group_314" data-name="Group 314" transform="translate(-305.016 -359)">
    <circle id="Ellipse_85" data-name="Ellipse 85" cx="23" cy="23" r="23" transform="translate(314 363)" fill="#fff"/>
    <path id="Subtraction_6" data-name="Subtraction 6" d="M4.965,56.934A32,32,0,0,1-24.488,37.41a32.073,32.073,0,0,1,0-24.886A31.861,31.861,0,0,1-17.637,2.363,31.865,31.865,0,0,1,4.965-7,32,32,0,0,1,34.419,12.524a32.075,32.075,0,0,1,0,24.886,31.861,31.861,0,0,1-6.85,10.161,31.864,31.864,0,0,1-22.6,9.363ZM.4,15.834V34.1l15.526-9.133Z" transform="translate(332.016 366)" fill="#0347a1"/>
  </g>
</svg>
