<svg xmlns="http://www.w3.org/2000/svg" width="27.931" height="27.933" viewBox="0 0 27.931 27.933">
  <g id="Group_317" data-name="Group 317" transform="translate(-177 -640)">
    <ellipse id="Ellipse_9" data-name="Ellipse 9" cx="13.965" cy="13.967" rx="13.965" ry="13.967" transform="translate(177 640)" fill="#afd2f2"/>
    <g id="followers" transform="translate(183.585 646.585)">
      <path id="Path_127" data-name="Path 127" d="M8.689,69.346A2.772,2.772,0,1,0,4.2,67.475a2.209,2.209,0,0,0-2.576,3.548A2.721,2.721,0,0,0,0,73.512v2.567a.857.857,0,0,0,.856.856H9.965a.993.993,0,0,0,.992-.992V72.576A3.439,3.439,0,0,0,8.689,69.346ZM6.966,65.253a1.926,1.926,0,1,1-1.938,1.926A1.934,1.934,0,0,1,6.966,65.253Zm-3.823,2.79a1.368,1.368,0,0,1,1.339,1.692,3.461,3.461,0,0,0-.968,1,1.37,1.37,0,1,1-.371-2.687Zm-2.3,8.036V73.512a1.88,1.88,0,0,1,1.878-1.878h.389a3.424,3.424,0,0,0-.131.942v3.367a1,1,0,0,0,.012.153H.856A.018.018,0,0,1,.839,76.079Zm9.278-.136a.155.155,0,0,1-.153.153h-6a.155.155,0,0,1-.153-.153V72.576a2.6,2.6,0,0,1,2.594-2.594H7.524a2.6,2.6,0,0,1,2.594,2.594Z" transform="translate(0 -62.612)" fill="#0347a1"/>
      <path id="Path_128" data-name="Path 128" d="M399.66,1.185h-.771V.42a.42.42,0,0,0-.839,0v.765h-.771a.42.42,0,0,0,0,.839h.771V2.79a.42.42,0,0,0,.839,0V2.024h.771a.42.42,0,1,0,0-.839Z" transform="translate(-385.757 0)" fill="#0347a1"/>
    </g>
  </g>
</svg>
